<svg xmlns="http://www.w3.org/2000/svg" version="1.1" xmlns:xlink="http://www.w3.org/1999/xlink" xmlns:svgjs="http://svgjs.dev/svgjs" width="100%" height="100%" viewBox="0 0 1000 600"><rect width="1000" height="600" x="0" y="0" fill="black"/><g><circle r="166.66666666666666" cx="337.47980753580725" cy="359.7019771280568" fill="white" transform="matrix(0.7317941178467493,0,0,0.7317941178467494,0,36.7722238482328)"/><path d="M234.9083842035582 328.2661722168178L234.9083842035582 328.2661722168178L237.86091220242042 327.5425133935673Q238.46878561395087 327.5425133935673 238.46878561395087 328.7293138636981Q238.46878561395087 329.88716798089905 234.96627690941824 332.550232450461Q231.43482185195558 335.18435056709296 226.5139418538519 335.18435056709296Q221.56411550281817 335.18435056709296 218.78526562153607 332.34760797995085Q215.97746938732396 329.48191903987873 215.97746938732396 324.9083952769353L215.97746938732396 324.9083952769353Q215.97746938732396 315.24031339830805 228.59807926481344 305.71696328433086Q241.21868914230294 296.22255952328373 259.62856960579677 290.4622352902094Q278.03845006929055 284.70191105713513 294.9431201804233 284.70191105713513L294.9431201804233 284.70191105713513Q319.6633055826618 284.70191105713513 331.73393475448086 292.74899717168114Q343.8045639262999 300.79608328622714 343.8045639262999 314.3140301045474L343.8045639262999 314.3140301045474Q343.8045639262999 331.62394915670035 319.77909099438193 347.8049604445825L319.77909099438193 347.8049604445825Q307.1584811168924 356.34413455893883 292.5116265343014 361.4386926746227L292.5116265343014 361.4386926746227Q308.5768524104635 363.175473850424 318.15809523030066 371.8304333765005L318.15809523030066 371.8304333765005Q325.36573710987614 378.34336278575535 325.36573710987614 388.41669360540294Q325.36573710987614 398.49002442505054 315.7555479371089 408.9107114798583Q306.1453587643416 419.3313985346661 290.16697194696974 426.2206305320114Q274.18858512959764 433.08091617642646 257.48653948897515 433.08091617642646L257.48653948897515 433.08091617642646Q238.2661611434407 433.08091617642646 229.2059526763439 424.62858112086013L229.2059526763439 424.62858112086013Q225.12451691321084 420.7787161811672 225.12451691321084 417.76829547644496Q225.12451691321084 414.7578747717227 226.658673618502 411.40009783184024L226.658673618502 411.40009783184024Q219.21946091548642 424.8312055913703 215.77484491681383 431.66254488285546L215.77484491681383 431.66254488285546Q214.24068821152267 434.7019119405077 209.6092717427192 434.7019119405077Q204.9778552739157 434.7019119405077 202.4305762160738 432.2704182943858Q199.8832971582319 429.838924648264 199.8832971582319 426.77061123768175Q199.8832971582319 423.7312441800295 200.8095804519926 421.3865895926977L200.8095804519926 421.3865895926977Q205.38310421493603 409.37385312673865 233.11371032189683 365.14382584966546Q260.8443164288577 320.9427449255223 267.0677823088123 313.90878116352707L267.0677823088123 313.90878116352707Q270.3097738369747 309.9431308121141 281.83042230312344 309.9431308121141L281.83042230312344 309.9431308121141Q286.40394606606685 309.9431308121141 286.40394606606685 311.9693755172156L286.40394606606685 311.9693755172156Q286.40394606606685 313.50353222250675 272.85705289481666 334.8948870377928Q259.3391060764966 356.2572955001488 258.7022863120361 357.2704178526996L258.7022863120361 357.2704178526996Q272.85705289481666 353.18898208956654 287.6775855949878 346.1260719746412Q302.46917194222885 339.0631618597159 313.52667876149724 330.0897924514092Q324.5552392278355 321.14536939603244 324.5552392278355 313.90878116352707L324.5552392278355 313.90878116352707Q324.5552392278355 302.0118301092881 298.7061460613261 302.0118301092881L298.7061460613261 302.0118301092881Q271.6413060717558 302.0118301092881 246.60271078728698 316.36922116257887L246.60271078728698 316.36922116257887Q240.40819126026233 319.9296225729715 237.13725337916986 322.88215057183373Q233.89526185100743 325.834678570696 233.89526185100743 327.0504253937568Q233.89526185100743 328.2661722168178 234.9083842035582 328.2661722168178ZM253.23142560826196 376.89604513925434L253.23142560826196 376.89604513925434Q251.37885902074055 376.89604513925434 249.14998984512889 372.6409312585411L249.14998984512889 372.6409312585411Q239.4819079665016 388.09828372317276 228.88754279411367 407.0291985394069L228.88754279411367 407.0291985394069Q233.69263738049727 400.429430071362 242.83968490638415 400.429430071362L242.83968490638415 400.429430071362Q248.94736537461873 400.429430071362 248.94736537461873 401.9346404237231L248.94736537461873 401.9346404237231Q248.94736537461873 402.5425138352535 247.61583313983772 403.06354818799394L247.61583313983772 403.06354818799394Q243.56334372963468 404.5977048932851 243.56334372963468 407.63707195093735L243.56334372963468 407.63707195093735Q243.56334372963468 414.96049924223286 259.13648160598643 414.96049924223286L259.13648160598643 414.96049924223286Q280.18048018611216 414.96049924223286 297.28777476775497 400.31364465964185L297.28777476775497 400.31364465964185Q306.4348222936419 392.58496842732603 306.4348222936419 386.76675148839166L306.4348222936419 386.76675148839166Q306.4348222936419 383.20635007799905 299.0245559435564 378.9512361972858L299.0245559435564 378.9512361972858Q290.3695964174798 374.17508796383225 272.6544284243065 374.17508796383225L272.6544284243065 374.17508796383225Q260.3522284290473 374.17508796383225 256.8786660774447 375.53556655154324Q253.43405007877212 376.89604513925434 253.23142560826196 376.89604513925434ZM437.8223182430105 373.13301925835145L437.8223182430105 373.13301925835145Q440.2538118891323 373.13301925835145 440.2538118891323 377.0697232568344Q440.2538118891323 380.9774809023874 438.545977066261 390.55872372222456L438.545977066261 390.55872372222456Q437.21444483148 396.9558677197594 423.87017613074 408.8528187739983L423.87017613074 408.8528187739983Q407.804950254578 423.123370768499 388.55562555611357 429.20210488380354L388.55562555611357 429.20210488380354Q376.97708438410484 432.8782917059163 365.9195775648366 432.8782917059163Q354.8910170984983 432.8782917059163 345.7729159255414 423.5575660624493Q336.65481475258457 414.26578677191236 336.65481475258457 401.4714987768428Q336.65481475258457 388.7061571347031 341.80726557412845 375.0145321988029Q346.95971639567233 361.3518536158327 355.6436222746788 348.8759755029933Q364.3564745066153 336.4000973901539 376.1955328549942 324.9083952769353Q388.0635375563031 313.4166931637166 400.8867719043028 304.96435810815035Q413.7100062523024 296.51202305258397 427.7489874233629 291.5332503486202Q441.78796859442355 286.55447764465646 454.40857847191296 286.55447764465646L454.40857847191296 286.55447764465646Q464.39507023277054 286.55447764465646 471.40008764183574 293.76211952423193L471.40008764183574 293.76211952423193Q475.0762744639485 297.64093081685485 475.0762744639485 303.4880941087192Q475.0762744639485 309.3352574005836 469.37384293673426 318.2507341030303Q463.6714114095199 327.13726445254696 455.8848424713441 334.46069174384246Q448.09827353316825 341.81306538806797 439.81961659518197 346.8786771508217Q431.5120133042658 351.9732352665056 426.53324060030207 351.9732352665056Q421.52552154340833 351.9732352665056 417.9651201330156 348.8759755029933Q414.404718722623 345.7787157394809 414.404718722623 343.3182757404291Q414.404718722623 340.8867820943073 415.4757337810337 337.93425409544506Q416.5467488394446 334.9817260965828 418.16774460352576 334.9817260965828L418.16774460352576 334.9817260965828Q417.76249566250544 335.50276044932326 417.76249566250544 335.9948484491336L417.76249566250544 335.9948484491336Q417.76249566250544 337.21059527219455 421.29395071996817 337.21059527219455Q424.79645942450077 337.21059527219455 433.04617000955693 331.01607574516987Q441.2958805946131 324.7926098652152 447.9535417685181 317.06393363289936Q454.6112029424231 309.3352574005836 454.6112029424231 305.4564461079607L454.6112029424231 305.4564461079607Q454.6112029424231 302.82232799132873 451.0508015320304 302.82232799132873L451.0508015320304 302.82232799132873Q441.49850506512325 302.82232799132873 424.6517276598506 311.73780469377544Q407.804950254578 320.6243350432921 392.4344368487365 334.6633162143526Q377.06392344289486 348.73124373834315 365.7169530943264 368.0095147897376Q354.36998274575785 387.2877858411321 354.36998274575785 402.6582992469736L354.36998274575785 402.6582992469736Q354.36998274575785 409.05544324450847 357.78565239150043 412.9342545371314Q361.201322037243 416.8130658297543 368.26423215216835 416.8130658297543Q375.32714226709356 416.8130658297543 384.99522414572095 412.7316300666212Q394.6633060243481 408.65019430348815 403.3761582562846 402.74513830576376Q412.0890104882212 396.86902866096926 419.81768672053704 390.6455627810146Q427.54636295285275 384.45104325399 432.1777794216563 379.76173407932646Q436.8091958904597 375.0724249046629 436.89603494924984 374.11719525797224Q437.01182036097 373.13301925835145 437.8223182430105 373.13301925835145Z " fill="black" transform="matrix(0.7317941178467493,0,0,0.7317941178467494,0,36.7722238482328)"/><path d="M621.0473762319501 331.0307410084553L621.0473762319501 331.0307410084553L623.8770414966726 330.3371956004351Q624.4596196394095 330.3371956004351 624.4596196394095 331.4746100695882Q624.4596196394095 332.5842827224206 621.1028598645917 335.13652982393495Q617.718358273453 337.6610351091286 613.0022494989155 337.6610351091286Q608.2583989080573 337.6610351091286 605.5951845412595 334.9423371096893Q602.9042283581412 332.19589729392925 602.9042283581412 327.81269031524147L602.9042283581412 327.81269031524147Q602.9042283581412 318.54692366409137 614.9996602740138 309.4198660945452Q627.0950921898864 300.32055034132 644.7388873699208 294.79992889347903Q662.3826825499551 289.2793074456381 678.5839032813075 289.2793074456381L678.5839032813075 289.2793074456381Q702.2754144192781 289.2793074456381 713.8437518250554 296.9915323828229Q725.4120892308327 304.70375732000775 725.4120892308327 317.6591855418255L725.4120892308327 317.6591855418255Q725.4120892308327 334.24879170166906 702.3863816845613 349.7564670250012L702.3863816845613 349.7564670250012Q690.2909497686887 357.94030283963986 676.2535907103595 362.8228625121022L676.2535907103595 362.8228625121022Q691.6502987684084 364.48737149135064 700.8328399705961 372.7821745712725L700.8328399705961 372.7821745712725Q707.7405522344775 379.0240832434545 707.7405522344775 388.678235323096Q707.7405522344775 398.3323874027374 698.5302692159689 408.31944127822857Q689.3199861974605 418.3064951537197 674.006503588374 424.90904743807226Q658.6930209792876 431.4838579061039 642.6859929621809 431.4838579061039L642.6859929621809 431.4838579061039Q624.2654269251639 431.4838579061039 615.5822384167508 423.3832475404277L615.5822384167508 423.3832475404277Q611.6706423155167 419.69358596976014 611.6706423155167 416.8084370723961Q611.6706423155167 413.9232881750319 613.1409585805196 410.7052374818181L613.1409585805196 410.7052374818181Q606.0113117860717 423.5774402546734 602.7100356438955 430.1245089063843L602.7100356438955 430.1245089063843Q601.2397193788926 433.03739962006915 596.8010287675633 433.03739962006915Q592.3623381562338 433.03739962006915 589.9210583200025 430.7070870491213Q587.4797784837714 428.37677447817333 587.4797784837714 425.43614194816763Q587.4797784837714 422.52325123448264 588.3675166060374 420.27616411249716L588.3675166060374 420.27616411249716Q592.750723584725 408.76331033936145 619.3273836200599 366.3738150011657Q645.9040436553947 324.0120614792907 651.8685341643686 317.27080011333413L651.8685341643686 317.27080011333413Q654.9756175922993 313.4701712773834 666.016860487981 313.4701712773834L666.016860487981 313.4701712773834Q670.4000674666689 313.4701712773834 670.4000674666689 315.41209841984L670.4000674666689 315.41209841984Q670.4000674666689 316.8824146848428 657.4168974285304 337.38361694592055Q644.4614692067126 357.8570773906774 643.8511492476549 358.82804096190574L643.8511492476549 358.82804096190574Q657.4168974285304 354.9164448606717 671.6207073847844 348.1474416783943Q685.7967755247178 341.378438496117 696.3941493592667 332.77847543666627Q706.9637813774948 324.2062541935364 706.9637813774948 317.27080011333413L706.9637813774948 317.27080011333413Q706.9637813774948 305.86891360548174 682.1903394030127 305.86891360548174L682.1903394030127 305.86891360548174Q656.2517411430564 305.86891360548174 632.2550700255568 319.6288545006029L632.2550700255568 319.6288545006029Q626.3183213329038 323.04109790806234 623.1834960886523 325.87076317278485Q620.0764126607218 328.70042843750736 620.0764126607218 329.8655847229813Q620.0764126607218 331.0307410084553 621.0473762319501 331.0307410084553ZM638.607945963022 377.6369924274141L638.607945963022 377.6369924274141Q636.8324697184902 377.6369924274141 634.696349861788 373.5589454282552L634.696349861788 373.5589454282552Q625.4305832106378 388.373075343567 615.2770784372218 406.51622321737597L615.2770784372218 406.51622321737597Q619.8822199464761 400.19108909623156 628.6486339038516 400.19108909623156L628.6486339038516 400.19108909623156Q634.5021571475423 400.19108909623156 634.5021571475423 401.63366354491365L634.5021571475423 401.63366354491365Q634.5021571475423 402.21624168765055 633.2260335967851 402.7155943814252L633.2260335967851 402.7155943814252Q629.3421793118719 404.185910646428 629.3421793118719 407.098801360113L629.3421793118719 407.098801360113Q629.3421793118719 414.1174808892776 644.267276492467 414.1174808892776L644.267276492467 414.1174808892776Q664.4355769576949 414.1174808892776 680.830990403293 400.08012183094837L680.830990403293 400.08012183094837Q689.5974043606685 392.6730568732924 689.5974043606685 387.0969517928099L689.5974043606685 387.0969517928099Q689.5974043606685 383.68470838535035 682.4954993825414 379.60666138619143L682.4954993825414 379.60666138619143Q674.2006963026197 375.029261693258 657.2227047142848 375.029261693258L657.2227047142848 375.029261693258Q645.432432777941 375.029261693258 642.1034148194439 376.33312706033604Q638.8021386772676 377.6369924274141 638.607945963022 377.6369924274141ZM783.0318417291525 356.7751465541658L783.0318417291525 356.7751465541658Q790.4389066868084 356.7751465541658 790.4389066868084 361.8518989408738L790.4389066868084 361.8518989408738Q790.4389066868084 364.5705969403131 789.190524952372 365.84672049107036Q787.9144014016149 367.1228440418275 783.7808707698143 374.2802326525962Q779.619598321693 381.4653630796857 774.5983295676266 392.61757324065076Q769.5770608135603 403.79752521793677 768.1067445485575 411.67620105304644L768.1067445485575 411.67620105304644Q767.8293263853493 412.6749064405955 767.8293263853493 414.42264086880647L767.8293263853493 414.42264086880647Q767.8293263853493 419.7768114187226 770.7422170990343 419.7768114187226Q773.68284962904 419.7768114187226 777.6776711792364 417.00262978664176Q781.6724927294329 414.2284481545608 784.8073179736842 411.0658810939886Q787.9144014016149 407.87557221709557 790.8827757479413 404.57429607491935Q793.8788919105888 401.2452781164223 794.4614700533258 400.7736672389686Q795.0440481960627 400.27431454519404 796.2092044815366 400.27431454519404L796.2092044815366 400.27431454519404Q798.0679061750309 400.27431454519404 798.4562916035222 403.10397980991655Q798.8446770320135 405.93364507463895 798.8446770320135 408.9575030536071Q798.8446770320135 411.9813610325753 798.2620988892764 413.14651731804923L798.2620988892764 413.14651731804923Q795.432433624554 418.7226223985319 785.8060233612334 426.5180727846791Q776.2073549142335 434.3135231708264 768.3564208954447 434.3135231708264Q760.5054868766557 434.3135231708264 756.8158253059883 429.54193076364726Q753.0984219189999 424.77033835646813 753.0984219189999 418.94455692909827Q753.0984219189999 413.14651731804923 755.0403490614564 408.76331033936145L755.0403490614564 408.76331033936145Q746.9397386957803 419.3052005412688 736.4810739428353 426.60129823364156Q725.9946673735697 433.92513774233504 719.3643732728964 433.92513774233504Q712.7340791722231 433.92513774233504 708.5173230914601 429.9303161921386L708.5173230914601 429.9303161921386Q703.163152541544 424.9645310707138 703.163152541544 416.1148916643759Q703.163152541544 407.29299407435866 707.1024904590989 398.38787103537896Q711.0695701929745 389.45500618007856 717.5056715794022 382.0756830387434Q723.9417729658298 374.7241017137291 731.6539979030147 368.67638575579286L731.6539979030147 368.67638575579286Q747.8274768180462 355.99837569718323 761.4764504478841 355.99837569718323L761.4764504478841 355.99837569718323Q766.7473955488377 355.99837569718323 770.0764135073348 357.7461101253942Q773.377689649511 359.52158636992596 774.2654277717769 362.12931710408196L774.2654277717769 362.12931710408196Q776.5957403427249 358.63384824766007 778.2047656893318 357.71836830907336Q779.8137910359387 356.7751465541658 783.0318417291525 356.7751465541658ZM770.0764135073348 367.5944549192813L770.0764135073348 367.5944549192813Q753.4035818985287 367.5944549192813 735.5378521879279 386.1259882215815L735.5378521879279 386.1259882215815Q729.2127180667835 392.7562823222548 723.8862893331882 402.022048973405Q718.5598605995929 411.2878156245551 718.5598605995929 414.7000590320145Q718.5598605995929 418.11230243947404 720.5295295583703 418.11230243947404L720.5295295583703 418.11230243947404Q723.2482275578096 418.11230243947404 735.7320449021736 407.3484777070002Q748.2158622465375 396.55691115820565 752.3216510620172 391.5079005878185L752.3216510620172 391.5079005878185Q756.8158253059883 385.84857005837347 770.0764135073348 367.5944549192813ZM825.9484315774437 371.58927646947774L821.8426427619639 377.7479596926973Q844.8683503082353 351.61516871849545 861.0695710395876 351.61516871849545L861.0695710395876 351.61516871849545Q865.064392589784 351.61516871849545 867.6443815076192 354.00096492208496Q870.2243704254545 356.3867611256746 870.2243704254545 360.18738996162534Q870.2243704254545 363.9880187975761 864.8147162428968 372.9208836528765Q859.405062060339 381.85374850817703 854.8276623674057 387.98468991507576L854.8276623674057 387.98468991507576Q852.3863825311745 391.11951515932714 849.3070409195647 391.11951515932714Q846.2276993079549 391.11951515932714 844.5354485123856 388.87242803734165Q842.8154559004954 386.62534091535605 842.8154559004954 383.601482936388L842.8154559004954 383.601482936388Q842.8154559004954 376.8602215704314 850.0560699602265 368.3712257762639L850.0560699602265 368.3712257762639L849.83413542966 368.1770330620182Q846.6160847364462 368.4821930415472 833.9103328615158 380.85504312062784Q821.1768391702645 393.25563501602943 812.2439743149641 403.0484961772749Q803.3388512759846 412.8690991548412 792.8801865230396 426.9064582131704L792.8801865230396 426.9064582131704Q789.8563285440715 431.09547247761253 787.7756923200108 431.09547247761253Q785.6673142796293 431.09547247761253 782.1995872395282 429.7916071105346Q778.759602015748 428.4599999271357 778.0105729750861 427.8774217843987Q777.2892857507451 427.29484364166177 777.2892857507451 425.93549464194217Q777.2892857507451 424.54840382590174 778.0660566077278 422.74518576504914Q778.8428274647104 420.94196770419654 780.9512055050918 417.6406915620203Q783.0318417291525 414.3116736035233 787.2763396262362 406.9046086458673Q791.52083752332 399.49754368821135 800.509186011262 384.48922105865375Q809.4697926828833 369.45315661277544 811.2175271110942 366.3460731848449L811.2175271110942 366.3460731848449Q814.9349304980826 359.9099717984172 817.2652430690306 356.9693392684115L817.2652430690306 356.9693392684115Q821.6484500477183 351.4209760042498 832.1071148006632 351.4209760042498L832.1071148006632 351.4209760042498Q834.4374273716112 351.4209760042498 834.4374273716112 354.33386671793465L834.4374273716112 354.33386671793465Q834.4374273716112 358.9112664108681 825.9484315774437 371.58927646947774L825.9484315774437 371.58927646947774ZM966.5994403239441 374.0305563057089L966.5994403239441 374.0305563057089Q968.9297528948921 374.0305563057089 968.9297528948921 377.80344332533895Q968.9297528948921 381.54858852864805 967.2652439156435 390.7311297308358L967.2652439156435 390.7311297308358Q966.0168621812072 396.8620711377345 953.2278848573143 408.2639576455869L953.2278848573143 408.2639576455869Q937.8311767992656 421.94067309174574 919.3828689459277 427.7664545191155L919.3828689459277 427.7664545191155Q908.2584006012834 431.2896651918582 897.6887685830551 431.2896651918582Q887.0913947485062 431.2896651918582 878.3804644237723 422.3568003365578Q869.6417922827176 413.4516772975782 869.6417922827176 401.18979448378064Q869.6417922827176 388.955653486304 874.5798355878215 375.8337743665615Q879.4901370766046 362.7396370631397 887.8404237891681 350.7829142288711Q896.1629686854106 338.82619139460263 907.5371133769423 327.81269031524147Q918.9112580684739 316.7991892358804 931.2008826985922 308.69857887020424Q943.4627655123896 300.59796850452807 956.9452882443028 295.826376097349Q970.400069159895 291.05478369016987 982.4955010757676 291.05478369016987L982.4955010757676 291.05478369016987Q992.0386858901259 291.05478369016987 998.7799472560824 297.96249595405124L998.7799472560824 297.96249595405124Q1002.2754161125042 301.67989934103963 1002.2754161125042 307.283746237843Q1002.2754161125042 312.88759313464635 996.8380201136257 321.4320725614554Q991.3728822984264 329.94881017194376 983.9103337081289 336.9674897011084Q976.4477851178314 344.0139110465938 968.4858838337592 348.8687289027353Q960.5517243660079 353.75128857519775 955.7523901425079 353.75128857519775Q950.9807977353288 353.75128857519775 947.5685543278693 350.7829142288711Q944.15631092041 347.8145398825446 944.15631092041 345.4564854952759Q944.15631092041 343.12617292432793 945.1827581242798 340.2965076596054Q946.2092053281498 337.4668423948829 947.7627470421149 337.4668423948829L947.7627470421149 337.4668423948829Q947.3743616136237 337.96619508865746 947.3743616136237 338.4378059661113L947.3743616136237 338.4378059661113Q947.3743616136237 339.6029622515852 950.7311213884416 339.6029622515852Q954.1156229795802 339.6029622515852 961.99429881469 333.66621355893216Q969.9007164661205 327.7017230499583 976.2813342199064 320.2946580923023Q982.6896937900133 312.88759313464635 982.6896937900133 309.170189747658L982.6896937900133 309.170189747658Q982.6896937900133 306.6456844624644 979.2774503825539 306.6456844624644L979.2774503825539 306.6456844624644Q970.094909180366 306.6456844624644 953.9491720816554 315.1901638892735Q937.8311767992656 323.70690149976184 923.100272332916 337.16168241535405Q908.3693678665666 350.6442051472671 897.4945758688095 369.12025481692575Q886.6197838710524 387.5963044865844 886.6197838710524 402.32720895293386L886.6197838710524 402.32720895293386Q886.6197838710524 408.4581503598326 889.8933181969079 412.175553746821Q893.1391107064425 415.8929571338094 899.9358557050407 415.8929571338094Q906.704858887318 415.8929571338094 915.9706255384682 411.9813610325753Q925.2363921896182 408.06976493134124 933.5866789021817 402.41043440189634Q941.9092237984245 396.77884568877215 949.3162887560803 390.81435517979827Q956.7510955300571 384.8776064871451 961.1897861413864 380.3834322431741Q965.6284767527159 375.88925799920315 965.7117022016782 374.97377806061644Q965.8226694669617 374.0305563057089 966.5994403239441 374.0305563057089ZM1039.4494499823882 356.58095383992014Q1042.3623406960728 356.58095383992014 1045.4416823076826 359.216426390397Q1048.5210239192925 361.8518989408738 1048.5210239192925 367.2615531234316Q1048.5210239192925 372.6712073059893 1044.7203950833418 381.29891218176084Q1040.9197662473907 389.9266170575324 1034.2894721467178 398.8594819128328Q1027.6314362297235 407.7923467681332 1019.6972767619721 415.64328078692205Q1011.7353754779 423.494214805711 1002.5250924593917 428.51548355977735Q993.3148094408831 433.5367523138437 985.7967772179438 433.5367523138437Q978.3064868113255 433.5367523138437 973.7568289347129 428.7929017229854Q969.234912874421 424.0767929484479 969.234912874421 415.64328078692205Q969.234912874421 407.2097686253962 973.3684435062215 396.9730384030177Q977.501974138022 386.70856636431853 984.0490427897329 378.85763234552957Q990.5961114414438 371.0066983267407 998.1973691133454 364.7647896545588L998.1973691133454 364.7647896545588Q1014.0934298651688 352.0035541469867 1026.077894515758 352.0035541469867L1026.077894515758 352.0035541469867Q1031.459806881995 352.0035541469867 1034.1785048814345 354.63902669746363L1034.1785048814345 354.63902669746363Q1035.1494684526629 355.4990230034087 1035.1494684526629 356.1925684114289L1035.1494684526629 356.1925684114289L1035.1494684526629 356.7751465541658Q1036.5088174523826 356.58095383992014 1039.4494499823882 356.58095383992014ZM1029.6011051885012 369.56412387805875L1029.6011051885012 369.56412387805875L1028.9075597804808 369.56412387805875Q1025.495316373021 369.56412387805875 1025.495316373021 364.5705969403131L1025.495316373021 364.5705969403131Q1018.3656695785734 366.9286513275819 1010.5702191924262 372.7821745712725Q1002.7747688062789 378.6356978149632 996.6160855830593 386.62534091535605L996.6160855830593 386.62534091535605Q984.1322682386952 402.6046271161419 983.9380755244496 413.6458700118239L983.9380755244496 413.6458700118239Q983.9380755244496 419.11100782702323 987.9606388909668 419.11100782702323Q991.9554604411634 419.11100782702323 999.8618780925939 413.84006272606956Q1007.7405539277037 408.5691176251158 1015.5082624975302 398.80399828019114Q1023.2482292510357 389.0666207515872 1027.1043417196283 381.88149032449775Q1030.9604541882204 374.7241017137291 1030.9604541882204 372.14411279589393Q1030.9604541882204 369.56412387805875 1029.6011051885012 369.56412387805875ZM1168.8650231189608 284.70190775270464Q1170.7237248124552 284.70190775270464 1171.8056556489669 285.86706403817857Q1172.8598446691576 287.0322203236526 1172.8598446691576 288.2528602417682Q1172.8598446691576 289.47350015988377 1170.9734011593423 292.74703448573916Q1169.0592158332065 296.02056881159467 1162.234729018288 306.97858625831407Q1155.4102422033689 317.96434552135435 1151.6096133674182 324.2062541935364L1151.6096133674182 324.2062541935364Q1129.4716439434123 360.18738996162534 1116.8768593337654 385.0717992013908Q1104.309816540439 409.9284666248355 1104.309816540439 415.08844446050585L1104.309816540439 415.08844446050585L1104.309816540439 415.8929571338094Q1104.309816540439 419.8877786840058 1107.222707254124 419.8877786840058Q1110.1633397841297 419.8877786840058 1114.2968704159302 417.1413388682458Q1118.4581428640513 414.42264086880647 1121.565226291982 411.2878156245551Q1124.7000515362333 408.18073219662455 1127.8626185968055 404.8239724218067Q1131.0251856573777 401.439470830668 1131.718731065398 400.85689268793095Q1132.3845346570974 400.27431454519404 1133.4664654936091 400.27431454519404L1133.4664654936091 400.27431454519404Q1135.1309744728574 400.27431454519404 1135.602585350311 402.3826925855755Q1136.1019380440857 404.46332880963615 1136.1019380440857 408.2362158292661Q1136.1019380440857 411.9813610325753 1135.5193599013487 413.14651731804923L1135.5193599013487 413.14651731804923Q1132.6896946366264 418.6116551332486 1123.0632843733056 426.46258915203754Q1113.4646159263061 434.3135231708264 1104.892394683176 434.3135231708264L1104.892394683176 434.3135231708264Q1090.244715665789 434.3135231708264 1090.244715665789 421.94067309174574L1090.244715665789 421.94067309174574Q1090.244715665789 414.2284481545608 1096.0982389094797 401.74463081019684L1096.0982389094797 401.74463081019684Q1088.21956307437 411.9813610325753 1080.0079854434107 419.1942332759856L1080.0079854434107 419.1942332759856Q1064.8054700996072 432.45482147733225 1053.5977763060005 432.45482147733225L1053.5977763060005 432.45482147733225Q1047.3558676338184 432.45482147733225 1044.359751471171 428.07161449864435Q1041.3913771248444 423.68840751995657 1041.3913771248444 415.4490880726764Q1041.3913771248444 407.2097686253962 1047.8274785112721 395.6969148522606Q1054.2635798976999 384.1840610791249 1063.8899901610207 374.97377806061644Q1073.4886586080202 365.7634950421079 1085.1957050954015 359.5493281862468Q1096.902751582783 353.3629031467064 1106.7510963766704 353.3629031467064L1106.7510963766704 353.3629031467064Q1109.8581798046007 353.3629031467064 1114.0471940690427 357.16353198265716L1114.0471940690427 357.16353198265716Q1116.8768593337654 352.6693577386862 1124.4781170056672 339.21457682309386L1124.4781170056672 339.21457682309386Q1148.3915626742041 298.93345952527955 1156.1037876113892 290.05607830262073L1156.1037876113892 290.05607830262073Q1160.1818346105479 284.70190775270464 1168.8650231189608 284.70190775270464L1168.8650231189608 284.70190775270464ZM1108.1104453763896 366.3460731848449L1108.1104453763896 366.3460731848449Q1094.0730863180606 369.45315661277544 1081.977654402188 379.41246867194576Q1069.8822224863152 389.34403891479536 1063.8345065283788 400.2188309125524Q1057.7867905704425 411.0936229103094 1057.7867905704425 414.3116736035233Q1057.7867905704425 417.52972429673713 1059.1461395701622 417.52972429673713L1059.1461395701622 417.52972429673713Q1064.9996628138529 417.52972429673713 1088.1085958090866 391.3969333225352L1088.1085958090866 391.3969333225352Q1099.6214495822223 378.52473054968 1108.1104453763896 366.3460731848449ZM1195.691359501183 357.94030283963986L1195.691359501183 357.94030283963986Q1195.691359501183 364.37640422606745 1190.475898032871 369.25896389852977Q1185.2604365645589 374.1415235709921 1178.630142463886 374.1415235709921L1178.630142463886 374.1415235709921Q1176.4662807908626 374.1415235709921 1175.8004771991632 373.1150763671222Q1175.1069317911429 372.0886291632523 1175.1069317911429 370.4241201840038Q1175.1069317911429 368.78735302107606 1175.4953172196342 367.20606949078996L1175.4953172196342 367.20606949078996Q1171.9998483632125 368.3712257762639 1167.6998668334872 370.81250561249504Q1163.399885303762 373.2537854487263 1157.15797663158 378.05311967222616Q1150.9160679593979 382.8247120794053 1150.9160679593979 385.15502465035325L1150.9160679593979 385.15502465035325Q1150.9160679593979 385.93179550733583 1153.218638714025 385.93179550733583Q1155.4934676523312 385.93179550733583 1160.2928018758312 384.3227701607289Q1165.0643942830102 382.7137448141221 1166.978579609146 382.7137448141221Q1168.8650231189608 382.7137448141221 1169.4476012616979 382.90793752836777L1169.4476012616979 382.90793752836777Q1170.7237248124552 383.601482936388 1172.1940410774582 385.904053691015Q1173.6366155261403 388.17888262932144 1173.6366155261403 389.5104898127202Q1173.6366155261403 390.81435517979827 1171.1121102409465 392.95047503650045Q1168.5876049557528 395.11433670952357 1165.3695542625392 396.22400936235596Q1162.151503569325 397.36142383150906 1161.0695727328139 397.9440019742461L1161.0695727328139 397.9440019742461Q1140.4851450227734 409.45685574738167 1140.4851450227734 413.72909546078625L1140.4851450227734 413.72909546078625Q1140.4851450227734 421.3303531326879 1153.4683150609121 421.3303531326879L1153.4683150609121 421.3303531326879Q1161.7353763245133 421.3303531326879 1170.1411466697182 416.08714984805505L1170.1411466697182 416.08714984805505Q1177.2430516478453 411.59297560408396 1182.9578658099317 406.96009227850897Q1188.6726799720186 402.32720895293386 1190.1707380533421 401.2452781164223Q1191.6965379509866 400.19108909623156 1192.4733088079693 400.19108909623156L1192.4733088079693 400.19108909623156Q1194.9978140931626 400.19108909623156 1194.9978140931626 405.82267780935575Q1194.9978140931626 411.48200833880077 1194.3320105014636 413.28522639965337Q1193.6384650934433 415.08844446050585 1190.4204144002292 417.7239170109827L1190.4204144002292 417.7239170109827Q1169.5585685269812 434.70190859931773 1150.9160679593979 434.70190859931773L1150.9160679593979 434.70190859931773Q1140.984497716548 434.70190859931773 1135.0200072075745 431.9832105998784L1135.0200072075745 431.9832105998784Q1124.0897315771758 426.9896836621329 1124.0897315771758 416.75295343975444L1124.0897315771758 416.75295343975444Q1124.0897315771758 403.2981725241621 1142.732232144759 396.36271844396L1142.732232144759 396.36271844396Q1139.0148287577708 394.7259512810322 1137.96063973758 392.14596236319704Q1136.8787089010684 389.53823162904104 1136.8787089010684 383.8511592832752Q1136.8787089010684 378.13634512118864 1142.205137634664 371.7557273674026Q1147.5038245519381 365.3473677972958 1155.2160494891232 361.2693207981369L1155.2160494891232 361.2693207981369Q1172.388233791704 352.0035541469867 1185.8430147072959 352.0035541469867L1185.8430147072959 352.0035541469867Q1189.06106540051 352.0035541469867 1192.362341542686 353.5570958609521Q1195.691359501183 355.11063757491735 1195.691359501183 357.94030283963986Z " fill="white" transform="matrix(0.7317941178467493,0,0,0.7317941178467494,0,36.7722238482328)"/></g></svg>